<?xml version="1.0" encoding="utf-8"?>
<!-- Generator: Adobe Illustrator 25.1.0, SVG Export Plug-In . SVG Version: 6.00 Build 0)  -->
<svg version="1.1" id="Layer_1" xmlns="http://www.w3.org/2000/svg" xmlns:xlink="http://www.w3.org/1999/xlink" x="0px" y="0px"
	 viewBox="0 0 16 16" style="enable-background:new 0 0 16 16;" xml:space="preserve">
<style type="text/css">
	.st0{fill:#A5F270;}
</style>
<path class="st0" d="M8.3,0.1C8.1,0,7.9,0,7.7,0.1l-7.5,5C0,5.2-0.1,5.5,0.1,5.8C0.2,5.9,0.3,6,0.5,6h1.9v7H1.5
	C1.2,13,1,13.2,1,13.5S1.2,14,1.5,14h13c0.3,0,0.5-0.2,0.5-0.5S14.8,13,14.5,13h-0.9V6h1.9C15.8,6,16,5.8,16,5.5
	c0-0.2-0.1-0.3-0.2-0.4L8.3,0.1z M12.4,6v7h-1.2V6H12.4z M9.9,6v7H8.6V6H9.9z M7.4,6v7H6.1V6H7.4z M4.9,6v7H3.6V6H4.9z M0.5,15
	C0.2,15,0,15.2,0,15.5S0.2,16,0.5,16h15c0.3,0,0.5-0.2,0.5-0.5S15.8,15,15.5,15H0.5z"/>
<text transform="matrix(1 0 0 1 18.4365 1.8789)" style="font-family:'BoucherieBlock'; font-size:2px;">$</text>
</svg>
