<?xml version="1.0" encoding="utf-8"?>
<!-- Generator: Adobe Illustrator 25.1.0, SVG Export Plug-In . SVG Version: 6.00 Build 0)  -->
<svg version="1.1" id="Layer_1" xmlns="http://www.w3.org/2000/svg" xmlns:xlink="http://www.w3.org/1999/xlink" x="0px" y="0px"
	 viewBox="0 0 16 16" style="enable-background:new 0 0 16 16;" xml:space="preserve">
<style type="text/css">
	.st0{fill:#151615;}
	.st1{fill:#FFFFFF;}
	.st2{fill:none;stroke:#151615;stroke-width:0.5;stroke-miterlimit:10;}
</style>
<path class="st0" d="M8.3,0.1C8.1,0,7.9,0,7.7,0.1l-7.5,5C0,5.2-0.1,5.5,0.1,5.8C0.2,5.9,0.3,6,0.5,6h1.9v7H1.5
	C1.2,13,1,13.2,1,13.5S1.2,14,1.5,14h13c0.3,0,0.5-0.2,0.5-0.5S14.8,13,14.5,13h-0.9V6h1.9C15.8,6,16,5.8,16,5.5
	c0-0.2-0.1-0.3-0.2-0.4C15.8,5.1,8.3,0.1,8.3,0.1z M12.4,6v7h-1.2V6H12.4z M9.9,6v7H8.6V6H9.9z M7.4,6v7H6.1V6H7.4z M4.9,6v7H3.6V6
	H4.9z M0.5,15C0.2,15,0,15.2,0,15.5S0.2,16,0.5,16h15c0.3,0,0.5-0.2,0.5-0.5S15.8,15,15.5,15H0.5z"/>
<image style="overflow:visible;" width="474" height="316" xlink:href="../../../OIP.jpeg"  transform="matrix(0.6199 0 0 0.6199 -139.092 21.0765)">
</image>
<text transform="matrix(1 0 0 1 18.4365 1.8789)" style="font-family:'PosterGothicRoundExCondATF-Bold'; font-size:2px;">$</text>
<path class="st1" d="M9.4,3.4C9.9,3.2,9.9,2.1,9.1,2H8.4H8h0H7.6H7.3H6.9C6.1,2.1,6.1,3.2,6.6,3.4C5.9,3.6,6,4.8,6.8,4.8h0.4h0.4H8
	h0h0c0.3,0,0.3,0,0.3,0H9h0.2C10,4.8,10.1,3.6,9.4,3.4z"/>
<line class="st2" x1="8" y1="5.1" x2="8" y2="2"/>
</svg>
